<svg width="760" height="860" viewBox="0 0 760 860" fill="none" xmlns="http://www.w3.org/2000/svg">
  <defs>
    <linearGradient id="bg" x1="80" y1="60" x2="690" y2="780" gradientUnits="userSpaceOnUse">
      <stop stop-color="#F8FAFF"/>
      <stop offset="1" stop-color="#E8EEFF"/>
    </linearGradient>
    <linearGradient id="metal" x1="182" y1="104" x2="580" y2="720" gradientUnits="userSpaceOnUse">
      <stop stop-color="#FEFEFF"/>
      <stop offset="0.32" stop-color="#CFD4DE"/>
      <stop offset="0.56" stop-color="#FBFCFF"/>
      <stop offset="1" stop-color="#AEB6C4"/>
    </linearGradient>
    <linearGradient id="visor" x1="272" y1="154" x2="494" y2="254" gradientUnits="userSpaceOnUse">
      <stop stop-color="#11131A"/>
      <stop offset="0.55" stop-color="#3B4459"/>
      <stop offset="1" stop-color="#11131A"/>
    </linearGradient>
    <radialGradient id="glow" cx="0" cy="0" r="1" gradientUnits="userSpaceOnUse" gradientTransform="translate(389 191) rotate(90) scale(96 130)">
      <stop stop-color="#8EE1FF"/>
      <stop offset="1" stop-color="#2A3B8F"/>
    </radialGradient>
    <linearGradient id="card" x1="0" y1="0" x2="1" y2="1">
      <stop stop-color="#FFFFFF"/>
      <stop offset="1" stop-color="#ECEFF8"/>
    </linearGradient>
    <filter id="shadow" x="0" y="0" width="760" height="860" filterUnits="userSpaceOnUse" color-interpolation-filters="sRGB">
      <feDropShadow dx="0" dy="32" stdDeviation="34" flood-color="#1D2252" flood-opacity="0.18"/>
    </filter>
  </defs>

  <rect x="24" y="24" width="712" height="812" rx="42" fill="url(#bg)"/>
  <g filter="url(#shadow)">
    <ellipse cx="402" cy="772" rx="182" ry="34" fill="#CFD6E9" fill-opacity="0.72"/>
    <path d="M306 347C306 275.203 364.203 217 436 217V217C507.797 217 566 275.203 566 347V644H306V347Z" fill="url(#metal)"/>
    <path d="M396 227C445.706 227 486 186.706 486 137V119C486 69.2944 445.706 29 396 29C346.294 29 306 69.2944 306 119V137C306 186.706 346.294 227 396 227Z" transform="translate(0 86)" fill="url(#metal)"/>
    <rect x="284" y="226" width="226" height="86" rx="42" fill="url(#visor)"/>
    <rect x="300" y="243" width="194" height="52" rx="26" fill="url(#glow)"/>
    <circle cx="326" cy="269" r="6" fill="#C9F2FF"/>
    <circle cx="466" cy="269" r="6" fill="#C9F2FF"/>
    <path d="M351 352H447L462 430H336L351 352Z" fill="#F2F4FB"/>
    <path d="M255 424C279.5 376 314.5 347 360 337L384 430L308 496L255 424Z" fill="url(#metal)"/>
    <path d="M531 402C508 366 473 344 431 336L414 430L487 494L531 402Z" fill="url(#metal)"/>
    <path d="M337 430H452L494 742H295L337 430Z" fill="#FBFCFF"/>
    <path d="M394 431L460 742H328L394 431Z" fill="#263047"/>
    <path d="M350 430L394 512L440 430H350Z" fill="#2D3447"/>
    <path d="M266 470L214 650L312 680L346 498L266 470Z" fill="url(#metal)"/>
    <path d="M525 464L575 641L482 676L451 497L525 464Z" fill="url(#metal)"/>
    <rect x="180" y="594" width="188" height="132" rx="18" transform="rotate(-18 180 594)" fill="#505769"/>
    <rect x="192" y="607" width="162" height="106" rx="14" transform="rotate(-18 192 607)" fill="#707B92"/>
    <rect x="486" y="616" width="34" height="88" rx="17" fill="url(#metal)"/>
    <rect x="522" y="634" width="34" height="75" rx="17" fill="url(#metal)"/>
    <rect x="558" y="655" width="34" height="58" rx="17" fill="url(#metal)"/>
    <rect x="595" y="667" width="30" height="46" rx="15" fill="url(#metal)"/>
    <path d="M476 420C520 426 552 457 572 512" stroke="#939CB0" stroke-width="9" stroke-linecap="round"/>
    <circle cx="572" cy="522" r="24" stroke="#909BB0" stroke-width="10" fill="#F6F8FE"/>
    <circle cx="572" cy="522" r="10" fill="#CBD5E8"/>
    <path d="M300 728V813" stroke="#B7BECD" stroke-width="34" stroke-linecap="round"/>
    <path d="M478 728V813" stroke="#B7BECD" stroke-width="34" stroke-linecap="round"/>
    <path d="M282 814H336" stroke="#838C9E" stroke-width="26" stroke-linecap="round"/>
    <path d="M458 814H512" stroke="#838C9E" stroke-width="26" stroke-linecap="round"/>
  </g>

  <g transform="translate(80 160)">
    <rect width="176" height="56" rx="18" fill="url(#card)"/>
    <text x="22" y="25" fill="#8892A6" font-family="Arial, sans-serif" font-size="14">System status</text>
    <text x="22" y="42" fill="#1E2438" font-family="Arial, sans-serif" font-size="18" font-weight="700">Analysis Complete</text>
  </g>

  <g transform="translate(470 676)">
    <rect width="188" height="68" rx="22" fill="url(#card)"/>
    <circle cx="32" cy="34" r="16" fill="#D8E5FF"/>
    <circle cx="58" cy="34" r="16" fill="#C7D8FB"/>
    <circle cx="84" cy="34" r="16" fill="#A8C0FF"/>
    <text x="112" y="30" fill="#111827" font-family="Arial, sans-serif" font-size="24" font-weight="700">500+</text>
    <text x="112" y="50" fill="#6B7280" font-family="Arial, sans-serif" font-size="16">Expert Doctors</text>
  </g>
</svg>
